<mxfile modified="2024-02-15T08:59:10.171Z" host="Electron" agent="Mozilla/5.0 (Windows NT 10.0; Win64; x64) AppleWebKit/537.36 (KHTML, like Gecko) draw.io/23.0.2 Chrome/120.0.6099.109 Electron/28.1.0 Safari/537.36" etag="-lx4iHUyD8LwQ1eujf7W" version="23.0.2" type="device">
  <diagram id="Ht1M8jgEwFfnCIfOTk4-" name="Page-1">
    <mxGraphModel dx="1418" dy="828" grid="1" gridSize="10" guides="1" tooltips="1" connect="1" arrows="1" fold="1" page="1" pageScale="1" pageWidth="1169" pageHeight="827" background="none" math="0" shadow="0">
      <root>
        <mxCell id="0" />
        <mxCell id="1" parent="0" />
        <mxCell id="CNbbQjF7sRVJ1mI28Nq--2" value="&lt;b&gt;&lt;font style=&quot;font-size: 15px;&quot;&gt;&amp;nbsp;Part 1&lt;/font&gt;&lt;/b&gt;" style="ellipse;whiteSpace=wrap;html=1;aspect=fixed;strokeWidth=3;strokeColor=#9933FF;" vertex="1" parent="1">
          <mxGeometry x="454" y="261" width="80" height="80" as="geometry" />
        </mxCell>
        <mxCell id="CNbbQjF7sRVJ1mI28Nq--3" value="&lt;font size=&quot;1&quot; style=&quot;&quot;&gt;&lt;b style=&quot;font-size: 15px;&quot;&gt;Part 2&lt;/b&gt;&lt;/font&gt;" style="ellipse;whiteSpace=wrap;html=1;aspect=fixed;strokeWidth=3;strokeColor=#9933FF;" vertex="1" parent="1">
          <mxGeometry x="454" y="381" width="80" height="80" as="geometry" />
        </mxCell>
        <mxCell id="CNbbQjF7sRVJ1mI28Nq--4" value="&lt;font size=&quot;1&quot; style=&quot;&quot;&gt;&lt;b style=&quot;font-size: 15px;&quot;&gt;Part 3&lt;/b&gt;&lt;/font&gt;" style="ellipse;whiteSpace=wrap;html=1;aspect=fixed;strokeWidth=3;strokeColor=#9933FF;" vertex="1" parent="1">
          <mxGeometry x="454" y="501" width="80" height="80" as="geometry" />
        </mxCell>
        <mxCell id="CNbbQjF7sRVJ1mI28Nq--5" value="&lt;b&gt;&lt;font style=&quot;font-size: 14px;&quot;&gt;Part N&lt;/font&gt;&lt;/b&gt;" style="ellipse;whiteSpace=wrap;html=1;aspect=fixed;strokeWidth=3;strokeColor=#9933FF;" vertex="1" parent="1">
          <mxGeometry x="454" y="621" width="80" height="80" as="geometry" />
        </mxCell>
        <mxCell id="CNbbQjF7sRVJ1mI28Nq--6" value="&lt;b&gt;&lt;font style=&quot;font-size: 22px;&quot;&gt;Size &amp;lt;= 5TiB&lt;/font&gt;&lt;/b&gt;" style="ellipse;whiteSpace=wrap;html=1;aspect=fixed;strokeWidth=3;strokeColor=#9933FF;" vertex="1" parent="1">
          <mxGeometry x="94" y="341" width="280" height="280" as="geometry" />
        </mxCell>
        <mxCell id="CNbbQjF7sRVJ1mI28Nq--7" value="&lt;b&gt;&lt;font style=&quot;font-size: 15px;&quot;&gt;N &amp;lt;= 10000&lt;/font&gt;&lt;/b&gt;" style="text;html=1;align=center;verticalAlign=middle;resizable=0;points=[];autosize=1;strokeColor=none;fillColor=none;" vertex="1" parent="1">
          <mxGeometry x="445" y="709" width="100" height="30" as="geometry" />
        </mxCell>
        <mxCell id="CNbbQjF7sRVJ1mI28Nq--8" value="&lt;font style=&quot;font-size: 15px;&quot;&gt;&lt;b&gt;5 MiB &amp;lt;= Size &amp;lt;= 5 GiB&lt;/b&gt;&lt;/font&gt;" style="text;html=1;align=center;verticalAlign=middle;resizable=0;points=[];autosize=1;strokeColor=none;fillColor=none;" vertex="1" parent="1">
          <mxGeometry x="400" y="219" width="180" height="30" as="geometry" />
        </mxCell>
        <mxCell id="CNbbQjF7sRVJ1mI28Nq--9" value="" style="endArrow=classic;html=1;rounded=0;entryX=0;entryY=0.5;entryDx=0;entryDy=0;strokeWidth=3;strokeColor=#974e4e;" edge="1" parent="1" target="CNbbQjF7sRVJ1mI28Nq--2">
          <mxGeometry width="50" height="50" relative="1" as="geometry">
            <mxPoint x="234" y="341" as="sourcePoint" />
            <mxPoint x="294" y="301" as="targetPoint" />
            <Array as="points">
              <mxPoint x="234" y="301" />
            </Array>
          </mxGeometry>
        </mxCell>
        <mxCell id="CNbbQjF7sRVJ1mI28Nq--10" value="" style="endArrow=classic;html=1;rounded=0;entryX=0;entryY=0.5;entryDx=0;entryDy=0;strokeWidth=3;exitX=0.5;exitY=1;exitDx=0;exitDy=0;strokeColor=#974E4E;" edge="1" parent="1" source="CNbbQjF7sRVJ1mI28Nq--6">
          <mxGeometry width="50" height="50" relative="1" as="geometry">
            <mxPoint x="234" y="703" as="sourcePoint" />
            <mxPoint x="454" y="663" as="targetPoint" />
            <Array as="points">
              <mxPoint x="234" y="663" />
            </Array>
          </mxGeometry>
        </mxCell>
        <mxCell id="CNbbQjF7sRVJ1mI28Nq--11" value="" style="endArrow=classic;html=1;rounded=0;strokeWidth=3;entryX=0;entryY=0.5;entryDx=0;entryDy=0;strokeColor=#974E4E;" edge="1" parent="1" target="CNbbQjF7sRVJ1mI28Nq--4">
          <mxGeometry width="50" height="50" relative="1" as="geometry">
            <mxPoint x="364" y="540.5" as="sourcePoint" />
            <mxPoint x="434" y="540.5" as="targetPoint" />
          </mxGeometry>
        </mxCell>
        <mxCell id="CNbbQjF7sRVJ1mI28Nq--12" value="" style="endArrow=classic;html=1;rounded=0;strokeWidth=3;entryX=0;entryY=0.5;entryDx=0;entryDy=0;strokeColor=#974E4E;" edge="1" parent="1" target="CNbbQjF7sRVJ1mI28Nq--3">
          <mxGeometry width="50" height="50" relative="1" as="geometry">
            <mxPoint x="364" y="420.5" as="sourcePoint" />
            <mxPoint x="434" y="420.5" as="targetPoint" />
          </mxGeometry>
        </mxCell>
        <mxCell id="CNbbQjF7sRVJ1mI28Nq--13" value="" style="sketch=0;outlineConnect=0;fontColor=#232F3E;gradientColor=none;fillColor=#7AA116;strokeColor=none;dashed=0;verticalLabelPosition=bottom;verticalAlign=top;align=center;html=1;fontSize=12;fontStyle=0;aspect=fixed;pointerEvents=1;shape=mxgraph.aws4.bucket_with_objects;" vertex="1" parent="1">
          <mxGeometry x="892" y="386" width="182.69" height="190" as="geometry" />
        </mxCell>
        <mxCell id="CNbbQjF7sRVJ1mI28Nq--14" value="" style="endArrow=none;html=1;rounded=0;strokeWidth=3;exitX=1;exitY=0.5;exitDx=0;exitDy=0;entryX=1;entryY=0.5;entryDx=0;entryDy=0;strokeColor=#974E4E;" edge="1" parent="1" target="CNbbQjF7sRVJ1mI28Nq--5">
          <mxGeometry width="50" height="50" relative="1" as="geometry">
            <mxPoint x="534" y="301" as="sourcePoint" />
            <mxPoint x="584" y="391" as="targetPoint" />
            <Array as="points">
              <mxPoint x="634" y="301" />
              <mxPoint x="634" y="661" />
            </Array>
          </mxGeometry>
        </mxCell>
        <mxCell id="CNbbQjF7sRVJ1mI28Nq--15" value="" style="endArrow=none;html=1;rounded=0;strokeWidth=3;strokeColor=#974E4E;" edge="1" parent="1">
          <mxGeometry width="50" height="50" relative="1" as="geometry">
            <mxPoint x="534" y="540.5" as="sourcePoint" />
            <mxPoint x="634" y="541" as="targetPoint" />
          </mxGeometry>
        </mxCell>
        <mxCell id="CNbbQjF7sRVJ1mI28Nq--16" value="" style="endArrow=none;html=1;rounded=0;strokeWidth=3;strokeColor=#974E4E;" edge="1" parent="1">
          <mxGeometry width="50" height="50" relative="1" as="geometry">
            <mxPoint x="534" y="420.5" as="sourcePoint" />
            <mxPoint x="634" y="421" as="targetPoint" />
          </mxGeometry>
        </mxCell>
        <mxCell id="CNbbQjF7sRVJ1mI28Nq--17" value="" style="endArrow=classic;html=1;rounded=0;strokeWidth=3;strokeColor=#974E4E;" edge="1" parent="1" target="CNbbQjF7sRVJ1mI28Nq--13">
          <mxGeometry width="50" height="50" relative="1" as="geometry">
            <mxPoint x="634" y="480.5" as="sourcePoint" />
            <mxPoint x="714" y="480.5" as="targetPoint" />
          </mxGeometry>
        </mxCell>
        <mxCell id="CNbbQjF7sRVJ1mI28Nq--18" value="&lt;b style=&quot;font-size: 22px;&quot;&gt;Multipart&lt;br&gt;upload&lt;/b&gt;" style="text;html=1;align=center;verticalAlign=middle;resizable=0;points=[];autosize=1;strokeColor=none;fillColor=none;" vertex="1" parent="1">
          <mxGeometry x="714" y="496" width="120" height="70" as="geometry" />
        </mxCell>
        <mxCell id="CNbbQjF7sRVJ1mI28Nq--20" value="&lt;b style=&quot;font-size: 22px;&quot;&gt;Recommended when object&amp;nbsp;&lt;br&gt;size &amp;gt; 100 MiB&lt;/b&gt;" style="text;html=1;align=center;verticalAlign=middle;resizable=0;points=[];autosize=1;strokeColor=none;fillColor=none;" vertex="1" parent="1">
          <mxGeometry x="634" y="601" width="320" height="70" as="geometry" />
        </mxCell>
        <mxCell id="CNbbQjF7sRVJ1mI28Nq--21" value="&lt;b style=&quot;&quot;&gt;&lt;font style=&quot;font-size: 18px;&quot;&gt;Size &amp;lt;= 5GiB&lt;/font&gt;&lt;/b&gt;" style="ellipse;whiteSpace=wrap;html=1;aspect=fixed;strokeWidth=3;strokeColor=#9933FF;" vertex="1" parent="1">
          <mxGeometry x="918.34" y="51" width="130" height="130" as="geometry" />
        </mxCell>
        <mxCell id="CNbbQjF7sRVJ1mI28Nq--22" value="" style="endArrow=classic;html=1;rounded=0;strokeWidth=3;exitX=0.5;exitY=1;exitDx=0;exitDy=0;strokeColor=#974E4E;" edge="1" parent="1" source="CNbbQjF7sRVJ1mI28Nq--21" target="CNbbQjF7sRVJ1mI28Nq--13">
          <mxGeometry width="50" height="50" relative="1" as="geometry">
            <mxPoint x="983" y="201" as="sourcePoint" />
            <mxPoint x="982.84" y="231" as="targetPoint" />
          </mxGeometry>
        </mxCell>
        <mxCell id="CNbbQjF7sRVJ1mI28Nq--23" value="&lt;b&gt;&lt;font style=&quot;font-size: 22px;&quot;&gt;Single upload&lt;/font&gt;&lt;/b&gt;" style="text;html=1;align=center;verticalAlign=middle;resizable=0;points=[];autosize=1;strokeColor=none;fillColor=none;" vertex="1" parent="1">
          <mxGeometry x="804" y="263" width="170" height="40" as="geometry" />
        </mxCell>
      </root>
    </mxGraphModel>
  </diagram>
</mxfile>
